<svg xmlns="http://www.w3.org/2000/svg" data-name="Warstwa 1" viewBox="0 0 100 100" x="0px" y="0px"><title>bitcoin_square 1</title><path d="M59,54H42.16v9H59a4.49,4.49,0,1,0,0-9Z"/><path d="M58.82,44.72A4.49,4.49,0,0,0,55.64,37H42.16v9H55.64A4.46,4.46,0,0,0,58.82,44.72Z"/><path d="M82.92,6.29H17.08A10.79,10.79,0,0,0,6.29,17.08V82.92A10.79,10.79,0,0,0,17.08,93.71H82.92A10.79,10.79,0,0,0,93.71,82.92V17.08A10.79,10.79,0,0,0,82.92,6.29ZM67.49,67.55a12.76,12.76,0,0,1-8.72,3.33H52.26v4.76a1.59,1.59,0,0,1-1.59,1.59H45.91a1.59,1.59,0,0,1-1.59-1.59V70.88H30.13a1.59,1.59,0,0,1-1.59-1.59V64.53a1.59,1.59,0,0,1,1.59-1.59h4.1V37.05h-4.1a1.59,1.59,0,0,1-1.59-1.59V30.7a1.59,1.59,0,0,1,1.59-1.59H44.33V24.36a1.59,1.59,0,0,1,1.59-1.59h4.76a1.59,1.59,0,0,1,1.59,1.59v4.76h3.09a12.81,12.81,0,0,1,9,3.55A12.44,12.44,0,0,1,66.1,48.24a12.56,12.56,0,0,1,1.71,1.43,12.42,12.42,0,0,1-.32,17.88Z"/></svg>